<svg width="32" height="32" viewBox="0 0 32 32" fill="none" xmlns="http://www.w3.org/2000/svg">
<path d="M16.3333 18C17.4379 18 18.3333 17.1046 18.3333 16C18.3333 14.8954 17.4379 14 16.3333 14C15.2287 14 14.3333 14.8954 14.3333 16C14.3333 17.1046 15.2287 18 16.3333 18Z" fill="#0094FF"/>
<path d="M25.6667 18C26.7712 18 27.6667 17.1046 27.6667 16C27.6667 14.8954 26.7712 14 25.6667 14C24.5621 14 23.6667 14.8954 23.6667 16C23.6667 17.1046 24.5621 18 25.6667 18Z" fill="#0094FF"/>
<path d="M7 18C8.10457 18 9 17.1046 9 16C9 14.8954 8.10457 14 7 14C5.89543 14 5 14.8954 5 16C5 17.1046 5.89543 18 7 18Z" fill="#0094FF"/>
</svg>
